<svg width="1900" height="1080" viewBox="0 0 1900 1080" fill="none" xmlns="http://www.w3.org/2000/svg">
<g clip-path="url(#clip0_2341_571)">
<mask id="mask0_2341_571" style="mask-type:alpha" maskUnits="userSpaceOnUse" x="-18" y="10" width="1918" height="1070">
<path d="M1900 10H-18V1079.71H1900V10Z" fill="url(#paint0_radial_2341_571)"/>
</mask>
<g mask="url(#mask0_2341_571)">
<path d="M1113.14 350.995L1180.43 314.689L1247.73 350.995V423.605L1180.43 459.911L1113.14 423.605V350.995Z" stroke="#F037A5"/>
<path d="M1181.43 461.533L1248.73 425.226L1316.03 461.533V534.142L1248.73 570.449L1181.43 534.142V461.533Z" stroke="#F037A5"/>
<path d="M1249.73 350.995L1317.03 314.689L1384.32 350.995V423.605L1317.03 459.911L1249.73 423.605V350.995Z" stroke="#F037A5"/>
<path d="M1318.03 461.533L1385.32 425.226L1452.62 461.533V534.142L1385.32 570.449L1318.03 534.142V461.533Z" stroke="#F037A5"/>
<path d="M1386.32 572.07L1453.62 535.763L1520.92 572.07V644.679L1453.62 680.986L1386.32 644.679V572.07Z" stroke="#F037A5"/>
<path d="M1454.62 461.533L1521.92 425.226L1589.21 461.533V534.142L1521.92 570.449L1454.62 534.142V461.533Z" stroke="#F037A5"/>
<path d="M908.244 461.533L975.541 425.226L1042.84 461.533V534.142L975.541 570.449L908.244 534.142V461.533Z" stroke="#F037A5"/>
<path d="M976.541 572.07L1043.84 535.763L1111.14 572.07V644.679L1043.84 680.986L976.541 644.679V572.07Z" stroke="#F037A5"/>
<path d="M1044.84 461.533L1112.14 425.226L1179.43 461.533V534.142L1112.14 570.449L1044.84 534.142V461.533Z" stroke="#F037A5"/>
<path d="M1113.14 572.07L1180.43 535.763L1247.73 572.07V644.679L1180.43 680.986L1113.14 644.679V572.07Z" stroke="#F037A5"/>
<path d="M1181.43 682.607L1248.73 646.301L1316.03 682.607V755.217L1248.73 791.523L1181.43 755.217V682.607Z" stroke="#F037A5"/>
<path d="M1249.73 572.07L1317.03 535.763L1384.32 572.07V644.679L1317.03 680.986L1249.73 644.679V572.07Z" stroke="#F037A5"/>
<path d="M1522.92 572.07L1590.22 535.763L1657.51 572.07V644.679L1590.22 680.986L1522.92 644.679V572.07Z" stroke="#F037A5"/>
<path d="M1591.21 682.607L1658.51 646.301L1725.8 682.607V755.217L1658.51 791.523L1591.21 755.217V682.607Z" stroke="#F037A5"/>
<path d="M1659.51 572.07L1726.81 535.763L1794.1 572.07V644.679L1726.81 680.986L1659.51 644.679V572.07Z" stroke="#F037A5"/>
<path d="M1727.81 682.607L1795.11 646.301L1862.4 682.607V755.217L1795.11 791.523L1727.81 755.217V682.607Z" stroke="#F037A5"/>
<path d="M1796.1 793.144L1863.41 756.838L1930.69 793.144V865.754L1863.41 902.06L1796.1 865.754V793.144Z" stroke="#F037A5"/>
<path d="M1864.4 682.607L1931.7 646.301L1998.99 682.607V755.217L1931.7 791.523L1864.4 755.217V682.607Z" stroke="#F037A5"/>
<path d="M1318.03 682.607L1385.32 646.301L1452.62 682.607V755.217L1385.32 791.523L1318.03 755.217V682.607Z" fill="#F037A5" stroke="#F037A5"/>
<path d="M1386.32 793.144L1453.62 756.838L1520.92 793.144V865.754L1453.62 902.06L1386.32 865.754V793.144Z" stroke="#F037A5"/>
<path d="M1454.62 682.607L1521.92 646.301L1589.21 682.607V755.217L1521.92 791.523L1454.62 755.217V682.607Z" stroke="#F037A5"/>
<path d="M1522.92 793.144L1590.22 756.838L1657.51 793.144V865.754L1590.22 902.06L1522.92 865.754V793.144Z" stroke="#F037A5"/>
<path d="M1591.21 903.681L1658.51 867.375L1725.8 903.681V976.291L1658.51 1012.6L1591.21 976.291V903.681Z" stroke="#F037A5"/>
<path d="M1659.51 793.144L1726.81 756.838L1794.1 793.144V865.754L1726.81 902.06L1659.51 865.754V793.144Z" stroke="#F037A5"/>
<path d="M1522.92 129.92L1590.22 93.6151L1657.51 129.92V202.531L1590.22 238.837L1522.92 202.531V129.92Z" stroke="#F037A5"/>
<path d="M1591.21 240.458L1658.51 204.152L1725.8 240.458V313.068L1658.51 349.374L1591.21 313.068V240.458Z" stroke="#F037A5"/>
<path d="M1659.51 129.92L1726.81 93.6151L1794.1 129.92V202.531L1726.81 238.837L1659.51 202.531V129.92Z" stroke="#F037A5"/>
<path d="M1727.81 240.458L1795.11 204.152L1862.4 240.458V313.068L1795.11 349.374L1727.81 313.068V240.458Z" stroke="#F037A5"/>
<path d="M1796.1 350.995L1863.41 314.689L1930.69 350.995V423.605L1863.41 459.911L1796.1 423.605V350.995Z" stroke="#F037A5"/>
<path d="M1864.4 240.458L1931.7 204.152L1998.99 240.458V313.068L1931.7 349.374L1864.4 313.068V240.458Z" stroke="#F037A5"/>
<path d="M1318.03 240.458L1385.32 204.152L1452.62 240.458V313.068L1385.32 349.374L1318.03 313.068V240.458Z" stroke="#F037A5"/>
<path d="M1386.32 350.995L1453.62 314.689L1520.92 350.995V423.605L1453.62 459.911L1386.32 423.605V350.995Z" stroke="#F037A5"/>
<path d="M1454.62 240.458L1521.92 204.152L1589.21 240.458V313.068L1521.92 349.374L1454.62 313.068V240.458Z" stroke="#F037A5"/>
<path d="M1522.92 350.995L1590.22 314.689L1657.51 350.995V423.605L1590.22 459.911L1522.92 423.605V350.995Z" stroke="#F037A5"/>
<path d="M1591.21 461.533L1658.51 425.226L1725.8 461.533V534.142L1658.51 570.449L1591.21 534.142V461.533Z" stroke="#F037A5"/>
<path d="M1659.51 350.995L1726.81 314.689L1794.1 350.995V423.605L1726.81 459.911L1659.51 423.605V350.995Z" stroke="#F037A5"/>
<path d="M1727.81 461.533L1795.11 425.226L1862.4 461.533V534.142L1795.11 570.449L1727.81 534.142V461.533Z" stroke="#F037A5"/>
<path d="M1796.1 572.07L1863.41 535.763L1930.69 572.07V644.679L1863.41 680.986L1796.1 644.679V572.07Z" stroke="#F037A5"/>
<path d="M1864.4 461.533L1931.7 425.226L1998.99 461.533V534.142L1931.7 570.449L1864.4 534.142V461.533Z" stroke="#F037A5"/>
<path d="M361.378 19.3834L428.709 -16.9223L496.041 19.3834V91.994L428.709 128.3L361.378 91.994V19.3834Z" stroke="#F037A5"/>
<path d="M498.041 19.3834L565.373 -16.9223L632.705 19.3834V91.994L565.373 128.3L498.041 91.994V19.3834Z" stroke="#F037A5"/>
<path d="M566.369 129.921L633.7 93.6149L701.032 129.921V202.531L633.7 238.837L566.369 202.531V129.921Z" stroke="#F037A5"/>
<path d="M634.704 19.3834L702.035 -16.9223L769.367 19.3834V91.994L702.035 128.3L634.704 91.994V19.3834Z" stroke="#F037A5"/>
<path d="M88.0523 19.3834L155.385 -16.9223L222.717 19.3834V91.994L155.385 128.3L88.0523 91.994V19.3834Z" stroke="#F037A5"/>
<path d="M156.383 129.921L223.715 93.6149L291.047 129.921V202.531L223.715 238.837L156.383 202.531V129.921Z" stroke="#F037A5"/>
<path d="M224.715 19.3834L292.047 -16.9223L359.379 19.3834V91.994L292.047 128.3L224.715 91.994V19.3834Z" stroke="#F037A5"/>
<path d="M293.046 129.921L360.378 93.6149L427.709 129.921V202.531L360.378 238.837L293.046 202.531V129.921Z" stroke="#F037A5"/>
<path d="M361.378 240.458L428.709 204.152L496.041 240.458V313.068L428.709 349.374L361.378 313.068V240.458Z" stroke="#F037A5"/>
<path d="M429.71 129.921L497.041 93.6149L564.373 129.921V202.531L497.041 238.837L429.71 202.531V129.921Z" stroke="#F037A5"/>
<path d="M703.032 129.921L770.364 93.6149L837.696 129.921V202.531L770.364 238.837L703.032 202.531V129.921Z" stroke="#F037A5"/>
<path d="M771.364 240.458L838.696 204.152L906.028 240.458V313.068L838.696 349.374L771.364 313.068V240.458Z" stroke="#F037A5"/>
<path d="M839.698 129.921L907.03 93.6149L974.362 129.921V202.531L907.03 238.837L839.698 202.531V129.921Z" stroke="#F037A5"/>
<path d="M908.026 240.458L975.358 204.152L1042.69 240.458V313.068L975.358 349.374L908.026 313.068V240.458Z" stroke="#F037A5"/>
<path d="M976.357 350.995L1043.69 314.689L1111.02 350.995V423.605L1043.69 459.911L976.357 423.605V350.995Z" stroke="#F037A5"/>
<path d="M1044.69 240.458L1112.02 204.152L1179.35 240.458V313.068L1112.02 349.374L1044.69 313.068V240.458Z" stroke="#F037A5"/>
<path d="M498.041 240.458L565.373 204.152L632.705 240.458V313.068L565.373 349.374L498.041 313.068V240.458Z" stroke="#F037A5"/>
<path d="M566.369 350.995L633.7 314.689L701.032 350.995V423.605L633.7 459.911L566.369 423.605V350.995Z" stroke="#F037A5"/>
<path d="M634.704 240.458L702.035 204.152L769.367 240.458V313.068L702.035 349.374L634.704 313.068V240.458Z" stroke="#F037A5"/>
<path d="M703.032 350.995L770.364 314.689L837.696 350.995V423.605L770.364 459.911L703.032 423.605V350.995Z" stroke="#F037A5"/>
<path d="M771.364 461.533L838.696 425.226L906.028 461.533V534.142L838.696 570.449L771.364 534.142V461.533Z" stroke="#F037A5"/>
<path d="M839.698 350.995L907.03 314.689L974.362 350.995V423.605L907.03 459.911L839.698 423.605V350.995Z" fill="#F037A5" stroke="#F037A5"/>
<path d="M771.364 19.3834L838.696 -16.9223L906.028 19.3834V91.994L838.696 128.3L771.364 91.994V19.3834Z" stroke="#F037A5"/>
<path d="M1181.35 19.3834L1248.69 -16.9223L1316.02 19.3834V91.994L1248.69 128.3L1181.35 91.994V19.3834Z" stroke="#F037A5"/>
<path d="M1318.02 19.3834L1385.35 -16.9223L1452.68 19.3834V91.994L1385.35 128.3L1318.02 91.994V19.3834Z" stroke="#F037A5"/>
<path d="M1386.35 129.921L1453.68 93.6149L1521.01 129.921V202.531L1453.68 238.837L1386.35 202.531V129.921Z" fill="#F037A5" stroke="#F037A5"/>
<path d="M1454.68 19.3834L1522.01 -16.9223L1589.33 19.3834V91.994L1522.01 128.3L1454.68 91.994V19.3834Z" stroke="#F037A5"/>
<path d="M908.026 19.3834L975.358 -16.9223L1042.69 19.3834V91.994L975.358 128.3L908.026 91.994V19.3834Z" stroke="#F037A5"/>
<path d="M976.357 129.921L1043.69 93.6149L1111.02 129.921V202.531L1043.69 238.837L976.357 202.531V129.921Z" stroke="#F037A5"/>
<path d="M1044.69 19.3834L1112.02 -16.9223L1179.35 19.3834V91.994L1112.02 128.3L1044.69 91.994V19.3834Z" stroke="#F037A5"/>
<path d="M1113.02 129.921L1180.35 93.6149L1247.69 129.921V202.531L1180.35 238.837L1113.02 202.531V129.921Z" stroke="#F037A5"/>
<path d="M1181.35 240.458L1248.69 204.152L1316.02 240.458V313.068L1248.69 349.374L1181.35 313.068V240.458Z" stroke="#F037A5"/>
<path d="M1249.68 129.921L1317.01 93.6149L1384.35 129.921V202.531L1317.01 238.837L1249.68 202.531V129.921Z" stroke="#F037A5"/>
<path d="M498.145 903.681L565.443 867.375L632.741 903.681V976.291L565.443 1012.6L498.145 976.291V903.681Z" stroke="#F037A5"/>
<path d="M566.443 1014.22L633.74 977.912L701.037 1014.22V1086.83L633.74 1123.13L566.443 1086.83V1014.22Z" stroke="#F037A5"/>
<path d="M634.74 903.681L702.037 867.375L769.334 903.681V976.291L702.037 1012.6L634.74 976.291V903.681Z" stroke="#F037A5"/>
<path d="M703.037 1014.22L770.334 977.912L837.631 1014.22V1086.83L770.334 1123.13L703.037 1086.83V1014.22Z" stroke="#F037A5"/>
<path d="M839.63 1014.22L906.927 977.912L974.226 1014.22V1086.83L906.927 1123.13L839.63 1086.83V1014.22Z" stroke="#F037A5"/>
<path d="M293.255 1014.22L360.553 977.912L427.85 1014.22V1086.83L360.553 1123.13L293.255 1086.83V1014.22Z" stroke="#F037A5"/>
<path d="M429.848 1014.22L497.147 977.912L564.444 1014.22V1086.83L497.147 1123.13L429.848 1086.83V1014.22Z" stroke="#F037A5"/>
<path d="M907.927 682.607L975.224 646.301L1042.52 682.607V755.217L975.224 791.523L907.927 755.217V682.607Z" stroke="#F037A5"/>
<path d="M976.224 793.144L1043.52 756.838L1110.82 793.144V865.754L1043.52 902.06L976.224 865.754V793.144Z" stroke="#F037A5"/>
<path d="M1044.52 682.607L1111.82 646.301L1179.12 682.607V755.217L1111.82 791.523L1044.52 755.217V682.607Z" stroke="#F037A5"/>
<path d="M1112.82 793.144L1180.12 756.838L1247.41 793.144V865.754L1180.12 902.06L1112.82 865.754V793.144Z" stroke="#F037A5"/>
<path d="M1181.11 903.681L1248.41 867.375L1315.71 903.681V976.291L1248.41 1012.6L1181.11 976.291V903.681Z" stroke="#F037A5"/>
<path d="M1249.41 793.144L1316.71 756.838L1384.01 793.144V865.754L1316.71 902.06L1249.41 865.754V793.144Z" stroke="#F037A5"/>
<path d="M703.037 793.144L770.334 756.838L837.631 793.144V865.754L770.334 902.06L703.037 865.754V793.144Z" stroke="#F037A5"/>
<path d="M771.333 903.681L838.631 867.375L905.929 903.681V976.291L838.631 1012.6L771.333 976.291V903.681Z" stroke="#F037A5"/>
<path d="M839.63 793.144L906.927 756.838L974.226 793.144V865.754L906.927 902.06L839.63 865.754V793.144Z" stroke="#F037A5"/>
<path d="M907.927 903.681L975.224 867.375L1042.52 903.681V976.291L975.224 1012.6L907.927 976.291V903.681Z" stroke="#F037A5"/>
<path d="M976.224 1014.22L1043.52 977.912L1110.82 1014.22V1086.83L1043.52 1123.13L976.224 1086.83V1014.22Z" stroke="#F037A5"/>
<path d="M1044.52 903.681L1111.82 867.375L1179.12 903.681V976.291L1111.82 1012.6L1044.52 976.291V903.681Z" stroke="#F037A5"/>
<path d="M1317.71 903.681L1385.01 867.375L1452.3 903.681V976.291L1385.01 1012.6L1317.71 976.291V903.681Z" stroke="#F037A5"/>
<path d="M1386.01 1014.22L1453.3 977.912L1520.6 1014.22V1086.83L1453.3 1123.13L1386.01 1086.83V1014.22Z" stroke="#F037A5"/>
<path d="M1454.3 903.681L1521.6 867.375L1588.89 903.681V976.291L1521.6 1012.6L1454.3 976.291V903.681Z" stroke="#F037A5"/>
<path d="M1522.6 1014.22L1589.9 977.912L1657.19 1014.22V1086.83L1589.9 1123.13L1522.6 1086.83V1014.22Z" stroke="#F037A5"/>
<path d="M1659.19 1014.22L1726.5 977.912L1793.78 1014.22V1086.83L1726.5 1123.13L1659.19 1086.83V1014.22Z" stroke="#F037A5"/>
<path d="M1112.82 1014.22L1180.12 977.912L1247.41 1014.22V1086.83L1180.12 1123.13L1112.82 1086.83V1014.22Z" stroke="#F037A5"/>
<path d="M1249.41 1014.22L1316.71 977.912L1384.01 1014.22V1086.83L1316.71 1123.13L1249.41 1086.83V1014.22Z" stroke="#F037A5"/>
<path d="M-116.948 572.07L-49.6158 535.763L17.7161 572.07V644.679L-49.6158 680.986L-116.948 644.679V572.07Z" stroke="#F037A5"/>
<path d="M-48.6216 682.607L18.7103 646.301L86.0422 682.607V755.217L18.7103 791.523L-48.6216 755.217V682.607Z" stroke="#F037A5"/>
<path d="M19.7138 572.07L87.0457 535.763L154.377 572.07V644.679L87.0457 680.986L19.7138 644.679V572.07Z" stroke="#F037A5"/>
<path d="M88.043 682.607L155.376 646.301L222.707 682.607V755.217L155.376 791.523L88.043 755.217V682.607Z" stroke="#F037A5"/>
<path d="M156.376 793.144L223.707 756.838L291.039 793.144V865.754L223.707 902.06L156.376 865.754V793.144Z" stroke="#F037A5"/>
<path d="M224.707 682.607L292.039 646.301L359.371 682.607V755.217L292.039 791.523L224.707 755.217V682.607Z" stroke="#F037A5"/>
<path d="M293.036 793.144L360.37 756.838L427.702 793.144V865.754L360.37 902.06L293.036 865.754V793.144Z" stroke="#F037A5"/>
<path d="M361.368 903.681L428.7 867.375L496.032 903.681V976.291L428.7 1012.6L361.368 976.291V903.681Z" stroke="#F037A5"/>
<path d="M429.7 793.144L497.032 756.838L564.364 793.144V865.754L497.032 902.06L429.7 865.754V793.144Z" fill="#F037A5" stroke="#F037A5"/>
<path d="M-116.948 793.144L-49.6158 756.838L17.7161 793.144V865.754L-49.6158 902.06L-116.948 865.754V793.144Z" stroke="#F037A5"/>
<path d="M-48.6216 903.681L18.7103 867.375L86.0422 903.681V976.291L18.7103 1012.6L-48.6216 976.291V903.681Z" stroke="#F037A5"/>
<path d="M19.7138 793.144L87.0457 756.838L154.377 793.144V865.754L87.0457 902.06L19.7138 865.754V793.144Z" stroke="#F037A5"/>
<path d="M88.043 903.681L155.376 867.375L222.707 903.681V976.291L155.376 1012.6L88.043 976.291V903.681Z" stroke="#F037A5"/>
<path d="M156.376 1014.22L223.707 977.912L291.039 1014.22V1086.83L223.707 1123.13L156.376 1086.83V1014.22Z" stroke="#F037A5"/>
<path d="M224.707 903.681L292.039 867.375L359.371 903.681V976.291L292.039 1012.6L224.707 976.291V903.681Z" stroke="#F037A5"/>
<path d="M88.043 240.458L155.376 204.152L222.707 240.458V313.068L155.376 349.374L88.043 313.068V240.458Z" fill="#F037A5" stroke="#F037A5"/>
<path d="M156.376 350.995L223.707 314.689L291.039 350.995V423.605L223.707 459.911L156.376 423.605V350.995Z" stroke="#F037A5"/>
<path d="M224.707 240.458L292.039 204.152L359.371 240.458V313.068L292.039 349.374L224.707 313.068V240.458Z" stroke="#F037A5"/>
<path d="M293.036 350.995L360.37 314.689L427.702 350.995V423.605L360.37 459.911L293.036 423.605V350.995Z" stroke="#F037A5"/>
<path d="M361.368 461.533L428.7 425.226L496.032 461.533V534.142L428.7 570.449L361.368 534.142V461.533Z" stroke="#F037A5"/>
<path d="M429.7 350.995L497.032 314.689L564.364 350.995V423.605L497.032 459.911L429.7 423.605V350.995Z" stroke="#F037A5"/>
<path d="M-116.948 350.995L-49.6158 314.689L17.7161 350.995V423.605L-49.6158 459.911L-116.948 423.605V350.995Z" stroke="#F037A5"/>
<path d="M-48.6216 461.533L18.7103 425.226L86.0422 461.533V534.142L18.7103 570.449L-48.6216 534.142V461.533Z" stroke="#F037A5"/>
<path d="M19.7138 350.995L87.0457 314.689L154.377 350.995V423.605L87.0457 459.911L19.7138 423.605V350.995Z" stroke="#F037A5"/>
<path d="M88.043 461.533L155.376 425.226L222.707 461.533V534.142L155.376 570.449L88.043 534.142V461.533Z" stroke="#F037A5"/>
<path d="M156.376 572.07L223.707 535.763L291.039 572.07V644.679L223.707 680.986L156.376 644.679V572.07Z" stroke="#F037A5"/>
<path d="M224.707 461.533L292.039 425.226L359.371 461.533V534.142L292.039 570.449L224.707 534.142V461.533Z" stroke="#F037A5"/>
<path d="M498.032 461.533L565.364 425.226L632.696 461.533V534.142L565.364 570.449L498.032 534.142V461.533Z" stroke="#F037A5"/>
<path d="M566.365 572.07L633.697 535.763L701.029 572.07V644.679L633.697 680.986L566.365 644.679V572.07Z" stroke="#F037A5"/>
<path d="M634.693 461.533L702.024 425.226L769.356 461.533V534.142L702.024 570.449L634.693 534.142V461.533Z" stroke="#F037A5"/>
<path d="M703.026 572.07L770.358 535.763L837.69 572.07V644.679L770.358 680.986L703.026 644.679V572.07Z" stroke="#F037A5"/>
<path d="M771.358 682.607L838.69 646.301L906.022 682.607V755.217L838.69 791.523L771.358 755.217V682.607Z" stroke="#F037A5"/>
<path d="M839.687 572.07L907.019 535.763L974.351 572.07V644.679L907.019 680.986L839.687 644.679V572.07Z" stroke="#F037A5"/>
<path d="M293.036 572.07L360.37 535.763L427.702 572.07V644.679L360.37 680.986L293.036 644.679V572.07Z" stroke="#F037A5"/>
<path d="M361.368 682.607L428.7 646.301L496.032 682.607V755.217L428.7 791.523L361.368 755.217V682.607Z" stroke="#F037A5"/>
<path d="M429.7 572.07L497.032 535.763L564.364 572.07V644.679L497.032 680.986L429.7 644.679V572.07Z" stroke="#F037A5"/>
<path d="M498.032 682.607L565.364 646.301L632.696 682.607V755.217L565.364 791.523L498.032 755.217V682.607Z" stroke="#F037A5"/>
<path d="M566.365 793.144L633.697 756.838L701.029 793.144V865.754L633.697 902.06L566.365 865.754V793.144Z" stroke="#F037A5"/>
<path d="M634.693 682.607L702.024 646.301L769.356 682.607V755.217L702.024 791.523L634.693 755.217V682.607Z" stroke="#F037A5"/>
</g>
</g>
<mask id="mask1_2341_571" style="mask-type:alpha" maskUnits="userSpaceOnUse" x="-121" y="-78" width="1919" height="1070">
<path d="M1797 -78H-121V991.705H1797V-78Z" fill="url(#paint1_radial_2341_571)"/>
</mask>
<g mask="url(#mask1_2341_571)">
<path d="M1318.03 682.607L1385.32 646.301L1452.62 682.607V755.217L1385.32 791.523L1318.03 755.217V682.607Z" fill="#F037A5"/>
<path d="M839.698 350.995L907.03 314.689L974.362 350.995V423.605L907.03 459.911L839.698 423.605V350.995Z" fill="#F037A5"/>
<path d="M1386.35 129.921L1453.68 93.6149L1521.01 129.921V202.531L1453.68 238.837L1386.35 202.531V129.921Z" fill="#F037A5"/>
<path d="M429.7 793.144L497.032 756.838L564.364 793.144V865.754L497.032 902.06L429.7 865.754V793.144Z" fill="#F037A5"/>
<path d="M88.043 240.458L155.376 204.152L222.707 240.458V313.068L155.376 349.374L88.043 313.068V240.458Z" fill="#F037A5"/>
</g>
<defs>
<radialGradient id="paint0_radial_2341_571" cx="0" cy="0" r="1" gradientUnits="userSpaceOnUse" gradientTransform="translate(941 544.853) rotate(90) scale(659.353 1182.23)">
<stop stop-color="#D9D9D9" stop-opacity="0.1"/>
<stop offset="0.802083" stop-color="#D9D9D9" stop-opacity="0"/>
</radialGradient>
<radialGradient id="paint1_radial_2341_571" cx="0" cy="0" r="1" gradientUnits="userSpaceOnUse" gradientTransform="translate(838 456.853) rotate(90) scale(659.353 1182.23)">
<stop stop-color="#D9D9D9" stop-opacity="0.1"/>
<stop offset="0.802083" stop-color="#D9D9D9" stop-opacity="0"/>
</radialGradient>
<clipPath id="clip0_2341_571">
<rect width="1918" height="1070" fill="white" transform="translate(-18 10)"/>
</clipPath>
</defs>
</svg>
